<svg id="Layer_1" data-name="Layer 1" xmlns="http://www.w3.org/2000/svg" viewBox="0 0 210 100.08"><defs><style>.cls-1{fill:#e0e0e0;}.cls-2{fill:#ebebeb;}.cls-3{fill:#f5f5f5;}.cls-4{fill:#f4e6df;}.cls-5{fill:#e8505b;}.cls-6{opacity:0.3;}.cls-7{fill:#403a88;}.cls-8{fill:#263238;}.cls-9{fill:#fff;}.cls-10{fill:#b78876;}.cls-11{fill:#aa6550;}.cls-12{fill:#455a64;}.cls-13{opacity:0.2;}.cls-14{fill:#fafafa;}.cls-15{fill:none;stroke:#4e585d;stroke-miterlimit:10;stroke-width:0.05px;}</style></defs><title>banner</title><path class="cls-1" d="M174.63,35l0,.95s-5.63-1.72-8.78.05h0a.69.69,0,0,1-.53.37l-1.35.21a.72.72,0,0,1-.72-.33h0a8.51,8.51,0,0,0-6.55.67l-1.22.62L157,25.44l15.38-3.83Z"/><path class="cls-2" d="M175.39,33.65l.09,1.7s-5.65-2.58-10.82.85l.71-8.24S174.84,32,175.39,33.65Z"/><path class="cls-3" d="M175.39,21.3s-6.86-4.12-11.24,2.61l.51,12.29S170.13,30.27,176,34Z"/><path class="cls-2" d="M164.66,36.2s-5.86-2.88-9.61.87l.23-11.27,8.89-1.46Z"/><path class="cls-3" d="M164.16,23.92A8.55,8.55,0,0,0,157,21.2l-3.06.41-.62,11.33s7.81-1.45,11.34,3.27Z"/><path class="cls-1" d="M164.66,36.2a1.81,1.81,0,0,0,0-.48l0-1.31c0-1.15-.09-2.66-.15-4.33s-.12-3.18-.16-4.33c0-.52,0-1,0-1.31a2,2,0,0,0-.05-.49,2.49,2.49,0,0,0,0,.49c0,.31,0,.75,0,1.31,0,1.11,0,2.64.09,4.33s.14,3.23.22,4.33c0,.56.07,1,.1,1.31A3.23,3.23,0,0,0,164.66,36.2Z"/><path class="cls-1" d="M156.79,23s.41-.07,1.08-.1a7.61,7.61,0,0,1,2.56.31,7.21,7.21,0,0,1,2.25,1.17c.5.39.76.7.79.67a.79.79,0,0,0-.15-.23,4.42,4.42,0,0,0-.54-.55,6.35,6.35,0,0,0-2.28-1.25,7,7,0,0,0-2.64-.27,4.6,4.6,0,0,0-.8.15C156.88,23,156.78,23,156.79,23Z"/><path class="cls-1" d="M156.55,24.33s.42-.06,1.08-.1a7.86,7.86,0,0,1,2.56.32,7.31,7.31,0,0,1,2.25,1.16c.51.4.77.7.8.68s-.05-.09-.16-.23a4.42,4.42,0,0,0-.54-.55,6.27,6.27,0,0,0-2.28-1.25,6.79,6.79,0,0,0-2.64-.27,5.57,5.57,0,0,0-.79.14Z"/><path class="cls-1" d="M156.58,25.73s.42-.06,1.09-.1a7.32,7.32,0,0,1,2.55.32,7,7,0,0,1,2.25,1.16c.51.4.77.7.8.68s0-.09-.16-.23a3.63,3.63,0,0,0-.53-.56,6.32,6.32,0,0,0-2.29-1.24,6.59,6.59,0,0,0-2.64-.27,5.57,5.57,0,0,0-.79.14A1,1,0,0,0,156.58,25.73Z"/><path class="cls-1" d="M156.4,27s.42-.06,1.08-.1a7.35,7.35,0,0,1,2.56.32,7,7,0,0,1,2.25,1.16c.51.4.77.7.8.68s-.05-.09-.16-.23a3.69,3.69,0,0,0-.53-.55,6.32,6.32,0,0,0-2.29-1.25,6.59,6.59,0,0,0-2.64-.27,5.57,5.57,0,0,0-.79.14A1,1,0,0,0,156.4,27Z"/><path class="cls-1" d="M156.19,28.43s.41-.07,1.08-.1a7.61,7.61,0,0,1,2.56.31,7,7,0,0,1,2.24,1.17c.51.39.77.7.8.67a.79.79,0,0,0-.15-.23,5.29,5.29,0,0,0-.54-.55,6.32,6.32,0,0,0-2.29-1.25,7,7,0,0,0-2.64-.27,4.28,4.28,0,0,0-.79.15C156.28,28.38,156.18,28.41,156.19,28.43Z"/><path class="cls-1" d="M155.88,30s.45-.07,1.18-.1a9.54,9.54,0,0,1,1.27,0,11.85,11.85,0,0,1,1.52.29,9.77,9.77,0,0,1,1.45.53,7.24,7.24,0,0,1,1.07.62c.58.41.86.74.89.72s0-.1-.18-.25a1.48,1.48,0,0,0-.25-.26,3,3,0,0,0-.36-.32,6.13,6.13,0,0,0-1.08-.67,8.67,8.67,0,0,0-1.47-.56,9.65,9.65,0,0,0-1.57-.28,8,8,0,0,0-1.3,0,3.43,3.43,0,0,0-.5.06,2.61,2.61,0,0,0-.37.08A1,1,0,0,0,155.88,30Z"/><path class="cls-1" d="M155.92,31.2s.45-.07,1.18-.09a8.55,8.55,0,0,1,1.27.08,11.94,11.94,0,0,1,1.52.33,10.79,10.79,0,0,1,1.44.58,8.68,8.68,0,0,1,1.06.64c.57.42.85.75.88.73s-.05-.1-.17-.25a2,2,0,0,0-.25-.26,4,4,0,0,0-.36-.33,6.5,6.5,0,0,0-1.06-.69,9,9,0,0,0-1.47-.61A10.91,10.91,0,0,0,158.4,31a8.48,8.48,0,0,0-1.31,0,3.43,3.43,0,0,0-.5.06,2.73,2.73,0,0,0-.37.07A1.31,1.31,0,0,0,155.92,31.2Z"/><path class="cls-1" d="M166.29,32.92s.28-.35.82-.83a6.38,6.38,0,0,1,2.48-1.36,6.81,6.81,0,0,1,2.88-.17c.74.11,1.18.28,1.19.25a.82.82,0,0,0-.29-.14,4.52,4.52,0,0,0-.87-.25,6.28,6.28,0,0,0-3,.12A5.86,5.86,0,0,0,167,32a4.37,4.37,0,0,0-.56.66A.79.79,0,0,0,166.29,32.92Z"/><path class="cls-1" d="M166.26,31.34s.29-.35.82-.83a6.38,6.38,0,0,1,2.48-1.36,6.69,6.69,0,0,1,2.89-.17c.74.11,1.17.28,1.19.25a1,1,0,0,0-.3-.14,4.39,4.39,0,0,0-.86-.25,6.39,6.39,0,0,0-3,.11A6,6,0,0,0,167,30.41a5.06,5.06,0,0,0-.56.66A.79.79,0,0,0,166.26,31.34Z"/><path class="cls-1" d="M166.24,29.76s.28-.35.82-.83a6.38,6.38,0,0,1,2.48-1.36,6.65,6.65,0,0,1,2.88-.17c.74.11,1.18.28,1.19.25a.93.93,0,0,0-.29-.15,5.56,5.56,0,0,0-.87-.24,6.39,6.39,0,0,0-3,.11A6,6,0,0,0,167,28.83a4.37,4.37,0,0,0-.56.66A.79.79,0,0,0,166.24,29.76Z"/><path class="cls-1" d="M166.21,28.18s.28-.35.82-.83A6.51,6.51,0,0,1,169.51,26a7,7,0,0,1,2.89-.17c.74.12,1.17.29,1.18.26s-.09-.07-.29-.15a6.44,6.44,0,0,0-.86-.25,6.55,6.55,0,0,0-3,.12,6,6,0,0,0-2.53,1.46,5.89,5.89,0,0,0-.56.65A.88.88,0,0,0,166.21,28.18Z"/><path class="cls-1" d="M166.19,26.6s.28-.35.82-.83a6.51,6.51,0,0,1,2.48-1.37,7,7,0,0,1,2.88-.17c.74.12,1.18.29,1.19.26a.93.93,0,0,0-.29-.15,5.39,5.39,0,0,0-.87-.25,6.55,6.55,0,0,0-3,.12,6,6,0,0,0-2.52,1.46,5,5,0,0,0-.56.65C166.22,26.49,166.18,26.59,166.19,26.6Z"/><path class="cls-1" d="M166.16,25s.28-.35.82-.83a6.38,6.38,0,0,1,2.48-1.37,6.85,6.85,0,0,1,2.89-.17c.74.12,1.17.29,1.18.26s-.09-.07-.29-.15a5.39,5.39,0,0,0-.87-.25,6.51,6.51,0,0,0-3,.12,5.67,5.67,0,0,0-3.09,2.11A.88.88,0,0,0,166.16,25Z"/><polygon class="cls-4" points="125.42 100 210 100 210 0 0 0 0 100.08 75.63 100.08 75.63 100.06 125.42 100.06 125.42 100"/><path class="cls-5" d="M146.7,40.92,141,32.55a.34.34,0,0,0-.55,0l-5.58,8.86Z"/><g class="cls-6"><path d="M146.7,40.92,141,32.55a.34.34,0,0,0-.55,0l-5.58,8.86Z"/></g><polygon class="cls-2" points="141.01 32.94 146.33 40.89 144.98 40.7 136.29 39.44 139.52 33.19 141.01 32.94"/><path class="cls-7" d="M141.58,48.57l5.12-7.65-13.27-2.24a1.08,1.08,0,0,0-1.09.46l-7.48,11.63a.59.59,0,0,0,.44.89l12.47,2Z"/><polygon class="cls-2" points="138.04 33.42 145.4 40.74 134.71 38.9 138.04 33.42"/><path class="cls-8" d="M134.71,38.9s0,0,0-.11l.16-.3.66-1.12,2.38-4,.06-.1.09.09,4.8,4.75,2.57,2.55-.16.12c-1.68-2.18-3.13-4.07-4.19-5.43l-1.19-1.59-.32-.43a1,1,0,0,1-.1-.15l.13.13.34.42,1.25,1.55c1.07,1.35,2.54,3.23,4.24,5.39l-.15.12-2.58-2.55L138,33.48l.15,0c-1,1.63-1.85,3-2.45,4l-.7,1.1-.19.28A.51.51,0,0,1,134.71,38.9Z"/><g class="cls-6"><path class="cls-9" d="M134.85,42.08l-4.46,6.81,7.09,1.21,4.71-6.89Z"/></g><path class="cls-10" d="M143.51,51.07a1.81,1.81,0,0,0-.06-1.37c-.7-1.51-2.33-4.88-2.92-4.78s-.91,1-.31,2l-1.93-1.5a.55.55,0,0,0-.91.46,2.23,2.23,0,0,0,.24.66,7.79,7.79,0,0,0,2.25,2.27h-3.35s-.62.81.52,1.35a2.66,2.66,0,0,0,.84.21l1.73.16s-3.13,3.18-3.24,3.47a5.91,5.91,0,0,0-.28,1.46l-6,6.14,1.61,9.32,10.86-17.23Z"/><path class="cls-11" d="M142.64,49.67s-.14-.13-.38-.3a2.64,2.64,0,0,0-1.06-.4,5.59,5.59,0,0,0-1.18-.06,1.49,1.49,0,0,1-.51,0s.19-.07.5-.11a4.56,4.56,0,0,1,1.23,0,2.29,2.29,0,0,1,1.12.5C142.59,49.48,142.66,49.66,142.64,49.67Z"/><path class="cls-11" d="M142.69,48.71a6.92,6.92,0,0,1-1.36-.87,6.51,6.51,0,0,1-1.24-1,6.49,6.49,0,0,1,1.37.86A5.74,5.74,0,0,1,142.69,48.71Z"/><path class="cls-4" d="M113.2,100.06c-.07-3.18-.13-5.37-.16-5.37L105.39,83.4,92.14,93.85l1.4,6.21Z"/><path class="cls-4" d="M121.19,100.06c.82-5.35,1.35-8.89,1.36-9.13l-18.92-.42-.67,9.55Z"/><path class="cls-12" d="M111.63,96.42c0,.48.08,1.16.14,2,0,.48.08,1,.13,1.61H112c0-.59-.09-1.14-.13-1.62-.08-.87-.15-1.55-.19-2l0-.52,0-.18v.18C111.6,96,111.61,96.2,111.63,96.42Z"/><path class="cls-12" d="M94.9,96.7a1.16,1.16,0,0,0,.32.2,1.29,1.29,0,0,0,1-.06A8.85,8.85,0,0,0,97.5,96c.47-.34,1-.74,1.48-1.17a24.45,24.45,0,0,0,2.4-2.4c.56-.66.88-1.09.91-1.07a1.12,1.12,0,0,1-.19.32c-.13.2-.34.49-.6.83A19.48,19.48,0,0,1,99.12,95c-.51.44-1,.83-1.5,1.17a7.26,7.26,0,0,1-1.35.83,1.32,1.32,0,0,1-1.09,0C94.94,96.84,94.89,96.7,94.9,96.7Z"/><path class="cls-12" d="M98.6,100.06a4.65,4.65,0,0,0,1.19-.65,7.47,7.47,0,0,0,1.88-2.21,4.84,4.84,0,0,0,.52-1,8.25,8.25,0,0,0-.65,1,8.37,8.37,0,0,1-1.89,2.12,4.75,4.75,0,0,1-1.61.8Z"/><path class="cls-7" d="M122.55,90.93s-10.1,4.33-13.73,2.84-6-4.93-8.61-4.13-6.62,1.49-8,4.93a2.88,2.88,0,0,1-.87-2.16,7.33,7.33,0,0,1,1.23-3.14L90.92,73.79l.07-26s2.82-3.85,10.44-3.62L112,45.54s5.37,1.49,6.87,4,.87,20.44.87,20.44S123,87.37,123,88.73a4.85,4.85,0,0,1-.47,2.2"/><path class="cls-7" d="M128.53,61.35l-4.34,3.55-5.37-15.35-4.51,9.24,1.81,15a5.94,5.94,0,0,0,4.76,4.95h0a6.71,6.71,0,0,0,5.63-1.28l4.59-3.6a2.19,2.19,0,0,0,.84-2.08l-1.71-9.87A1.06,1.06,0,0,0,128.53,61.35Z"/><path class="cls-10" d="M95.68,57.2c0,.34-2,17.1-2,17.1l8.54,17A15.8,15.8,0,0,1,98,95.72,8,8,0,0,1,95.71,90S86,79.53,85,76.78s1.75-21.53,1.75-21.53Z"/><path class="cls-8" d="M117.38,60.12a1.77,1.77,0,0,1-.18.34c-.12.21-.31.51-.55.89a14.7,14.7,0,0,1-.87,1.3,2.57,2.57,0,0,1-.74.63,2.27,2.27,0,0,1-1,.28,3.34,3.34,0,0,1-2-.57,5.18,5.18,0,0,1-1.16-1.11c-.27-.36-.46-.66-.59-.87a1.41,1.41,0,0,1-.18-.35s.33.45.89,1.14a5.4,5.4,0,0,0,1.15,1,3.27,3.27,0,0,0,1.84.53,2.31,2.31,0,0,0,1-.25,2.58,2.58,0,0,0,.68-.58c.37-.45.65-.91.9-1.26l.61-.86A1.46,1.46,0,0,1,117.38,60.12Z"/><path class="cls-8" d="M123.67,74a1.74,1.74,0,0,1-.16-.34,7.3,7.3,0,0,1-.32-1,10.42,10.42,0,0,1-.35-3.34,10.69,10.69,0,0,1,.71-3.28,7.91,7.91,0,0,1,.43-.93,1.93,1.93,0,0,1,.2-.33s-.21.5-.49,1.3a12.59,12.59,0,0,0-.64,3.25,12.17,12.17,0,0,0,.28,3.3C123.52,73.51,123.71,74,123.67,74Z"/><path class="cls-8" d="M126,70.94a3.3,3.3,0,0,1-.53-.8,10.59,10.59,0,0,1-.87-2.13,10.23,10.23,0,0,1-.4-2.24,3.74,3.74,0,0,1,0-.94,4.76,4.76,0,0,1,.13.93,13.85,13.85,0,0,0,1.26,4.32A5.78,5.78,0,0,1,126,70.94Z"/><path class="cls-8" d="M117.1,63.26a.83.83,0,0,1,.09.16,4.74,4.74,0,0,1,.21.5,5.14,5.14,0,0,1,.27,2,4.2,4.2,0,0,1-2.76,3.68,4,4,0,0,1-2,.16,3.4,3.4,0,0,1-1.79-.9,3.32,3.32,0,0,1-.87-1.55,9,9,0,0,1-.24-1.55c0-.48-.08-.93-.12-1.34-.06-.8-.11-1.46-.15-2l0-.53q0-.18,0-.18s0,.06,0,.18l.07.53c.06.49.13,1.15.22,1.94,0,.42.09.87.14,1.35a11,11,0,0,0,.26,1.52,3.17,3.17,0,0,0,.83,1.46,3.26,3.26,0,0,0,1.68.83,3.65,3.65,0,0,0,1.92-.14,4,4,0,0,0,1.48-.94,4.15,4.15,0,0,0,1.2-2.57,5.38,5.38,0,0,0-.2-1.92C117.19,63.5,117.08,63.26,117.1,63.26Z"/><g class="cls-13"><path d="M96.4,79.73a13.64,13.64,0,0,1,1-3.56,12.32,12.32,0,0,0,1.38-4.36A9.15,9.15,0,0,0,98.21,69q-1.5-4.92-3-9.85l-.33,7.64a2.92,2.92,0,0,0,.31,1.82c.44.66,1.34,1,1.85,1.57a1.72,1.72,0,0,1,.27,1.69c-.22.56-.77.7-1.4.84a8.15,8.15,0,0,1-.86.16c-.43.06-1,0-1.25.33-.49.88,0,1.42.25,1.84,1,1.94,2.34,4.7,2.34,4.7"/></g><path class="cls-7" d="M92.75,46.44s-8.8,4.08-10,25.87a2.46,2.46,0,0,0,3,2.4c3.61-.63,9.08-1.61,9.05-1.74s2-19.17,2-19.17Z"/><path class="cls-8" d="M96.65,53.46a1.29,1.29,0,0,1,0,.29c0,.19,0,.47,0,.84,0,.72-.06,1.77-.16,3.06s-.23,2.83-.43,4.54c-.1.85-.21,1.74-.32,2.67l-.19,1.41c0,.49-.22,1-.3,1.44a1.65,1.65,0,0,0,0,.7,1.21,1.21,0,0,0,.35.58c.33.34.83.52,1.22.86a2.17,2.17,0,0,1,.67,1.27,2,2,0,0,1,0,.69,1,1,0,0,1-.31.63,1.2,1.2,0,0,1-.68.26l-.66.11-1.26.24-2.26.42-3.28.63-.51.09-.21,0h0v0h.06l.08,0a1.77,1.77,0,0,1,.31,0l-.3.08-.08,0h-.06s0,0,0,0h0l.2-.05L89,74l3.27-.68,2.25-.45,1.26-.24.67-.13a1,1,0,0,0,.57-.2,1.3,1.3,0,0,0,.23-1.17A2,2,0,0,0,96.68,70c-.35-.31-.85-.49-1.24-.87a1.49,1.49,0,0,1-.4-.67,1.82,1.82,0,0,1,0-.77c.08-.5.26-1,.3-1.43s.13-1,.19-1.41c.12-.93.23-1.82.34-2.67.2-1.7.36-3.24.47-4.53s.19-2.33.23-3.06l.05-.83A1.11,1.11,0,0,1,96.65,53.46Z"/><path class="cls-8" d="M93,66.82a1,1,0,0,1,0,.26,1.83,1.83,0,0,1-.11.29,2.18,2.18,0,0,1-.19.37,4.28,4.28,0,0,1-.67.88,5.75,5.75,0,0,1-1.1.83A5.67,5.67,0,0,1,89.6,70a4.65,4.65,0,0,1-1.15.16,3.1,3.1,0,0,1-.45,0l-.33,0a1.08,1.08,0,0,1-.28-.08s.41,0,1,0a5.74,5.74,0,0,0,1.11-.19,6.45,6.45,0,0,0,1.25-.51,5.74,5.74,0,0,0,1.07-.8,4.33,4.33,0,0,0,.68-.82C92.88,67.17,93,66.8,93,66.82Z"/><g class="cls-13"><path d="M102.52,86.25a22.67,22.67,0,0,0,13.81,2.11,7.07,7.07,0,0,0,2.24-.6A2.51,2.51,0,0,0,120,86.12a1.54,1.54,0,0,0-1-1.75,3.29,3.29,0,0,0-2.26.47,22.15,22.15,0,0,1-14.43,1.34"/></g><path class="cls-8" d="M121.59,86.59l-.18.13a5.18,5.18,0,0,1-.54.33,11.93,11.93,0,0,1-2.14.92,18.52,18.52,0,0,1-7.72.63,37.32,37.32,0,0,1-7.53-1.86c-.93-.32-1.68-.59-2.19-.79l-.59-.23a.74.74,0,0,1-.21-.09s.08,0,.22.06l.61.19,2.21.73A39.85,39.85,0,0,0,111,88.4a18.84,18.84,0,0,0,7.65-.56,13.12,13.12,0,0,0,2.15-.86C121.32,86.73,121.58,86.58,121.59,86.59Z"/><g class="cls-13"><path d="M121.36,78.82c1.23-1.13,1.24-3.16,1-4.74s-.91-3.09-1.15-4.68-.06-3-.13-4.55a6.61,6.61,0,0,0-1.51-4.26,45.6,45.6,0,0,0,1.81,18.23"/></g><g class="cls-13"><path d="M109.74,62.33a28.47,28.47,0,0,0-.09,3.07,11.69,11.69,0,0,0,0,3.07,4.32,4.32,0,0,0,1.46,2.69,3.19,3.19,0,0,0,3.11.58,2.54,2.54,0,0,0,1.57-2.53,5,5,0,0,1-2.38.42,3.52,3.52,0,0,1-2.16-1,4.73,4.73,0,0,1-1.2-3c-.07-1.09-.22-2.22-.32-3.3"/></g><path class="cls-14" d="M96.08,59.52a1.45,1.45,0,0,1-.44.09l-1.22.16a17,17,0,0,1-4.06,0,7.93,7.93,0,0,1-3.71-1.46,4.8,4.8,0,0,1-.85-.83,1.88,1.88,0,0,1-.24-.35,10.2,10.2,0,0,0,1.18,1.07,8.37,8.37,0,0,0,3.66,1.38,18.78,18.78,0,0,0,4,.05l1.22-.09A3,3,0,0,1,96.08,59.52Z"/><path class="cls-14" d="M95.5,62.4a1.8,1.8,0,0,1-.43.14c-.14,0-.32.09-.53.13s-.44.09-.7.12A11.48,11.48,0,0,1,92,62.9a14.63,14.63,0,0,1-2.27-.24A13.25,13.25,0,0,1,87.54,62a11.05,11.05,0,0,1-1.65-.81,6.6,6.6,0,0,1-.58-.37,3.76,3.76,0,0,1-.43-.31,2,2,0,0,1-.33-.29s.52.36,1.42.86a14.34,14.34,0,0,0,1.64.76,15.77,15.77,0,0,0,2.15.61,15.22,15.22,0,0,0,2.23.25,12.89,12.89,0,0,0,1.83-.07C94.86,62.54,95.49,62.37,95.5,62.4Z"/><path class="cls-14" d="M109.4,61.93c0,.06-3,0-6.63-.06s-6.62-.2-6.62-.25,3,0,6.63.06S109.4,61.88,109.4,61.93Z"/><path class="cls-14" d="M109.82,65a3.15,3.15,0,0,1-.54.16c-.35.09-.87.2-1.51.31a30.4,30.4,0,0,1-5.1.47,30.78,30.78,0,0,1-5.1-.37c-.65-.1-1.16-.2-1.52-.28a4.73,4.73,0,0,1-.55-.15,3.22,3.22,0,0,1,.57.07l1.52.23a36.83,36.83,0,0,0,5.08.31,37.84,37.84,0,0,0,5.07-.41l1.52-.26Z"/><path class="cls-14" d="M117.5,64.41a.89.89,0,0,1-.13.27,2.6,2.6,0,0,1-.6.63,4.24,4.24,0,0,1-2.84.71,7.79,7.79,0,0,1-2.8-.91,5.38,5.38,0,0,1-1-.63,11.77,11.77,0,0,1,1.09.51,8.54,8.54,0,0,0,2.74.84,4.33,4.33,0,0,0,2.72-.63A4.65,4.65,0,0,0,117.5,64.41Z"/><path class="cls-14" d="M119.35,62.1a3.28,3.28,0,0,1-1.06.31,3.34,3.34,0,0,1-1.09.11,3.16,3.16,0,0,1,1-.31A3.38,3.38,0,0,1,119.35,62.1Z"/><path class="cls-14" d="M123.3,62.22a6.58,6.58,0,0,1-1.9.87,7.28,7.28,0,0,1-2.06.46c0-.06.9-.28,2-.65S123.27,62.17,123.3,62.22Z"/><path class="cls-14" d="M122,58.63a6.87,6.87,0,0,1-1.25.34,7.17,7.17,0,0,1-1.27.31,3,3,0,0,1,1.21-.5A3.28,3.28,0,0,1,122,58.63Z"/><path class="cls-8" d="M119.77,57.26a.91.91,0,0,1,0,.22l-.06.63c0,.27-.06.61-.09,1s-.07.83-.09,1.32c-.07,1-.1,2.15-.11,3.44s0,2.73.14,4.22.27,2.92.45,4.21.38,2.44.59,3.4c.09.49.2.92.28,1.3s.16.71.23,1l.15.62c0,.14,0,.22,0,.22a.61.61,0,0,1-.08-.21L121,78c-.08-.27-.17-.59-.26-1s-.22-.82-.32-1.3c-.22-1-.43-2.12-.64-3.41s-.35-2.71-.46-4.21-.14-2.93-.13-4.24.07-2.47.16-3.45c0-.49.08-.94.12-1.32s.09-.73.13-1l.1-.63C119.75,57.33,119.76,57.25,119.77,57.26Z"/><g class="cls-13"><path d="M110.85,61.66a4.74,4.74,0,0,0,4.17.28,2.16,2.16,0,0,1,.49-.16.5.5,0,0,1,.47.16c.13.18,0,.43-.13.6a2.71,2.71,0,0,1-2.66.74,3.92,3.92,0,0,1-2.27-1.62"/></g><path class="cls-8" d="M103.16,29.62A13,13,0,0,1,102.7,27a4.23,4.23,0,0,1,.65-2.54,3,3,0,0,1,2.36-1.32,13.33,13.33,0,0,0,1.78.08,5.42,5.42,0,0,0,1.78-.93,5.33,5.33,0,0,1,3.06-.73,3.25,3.25,0,0,1,1.59.48,1.51,1.51,0,0,1,.71,1.33,9,9,0,0,1,2.07-.12,2.76,2.76,0,0,1,1.81.83,1.41,1.41,0,0,1,.12,1.77,1.36,1.36,0,0,1,1.6.71,1.46,1.46,0,0,1-.43,1.65,3.38,3.38,0,0,1-2.06.69,5.1,5.1,0,0,1-2-.37"/><path class="cls-10" d="M105.45,49.49h0a4.8,4.8,0,0,0,5.9-3.88c.16-1.43.29-2.65.32-2.82,0,0,3.92.07,4.63-3.42s1.59-11.61,1.59-11.61h0a14.5,14.5,0,0,0-13.6-.6l-.64.31-1.92,17.25A4.48,4.48,0,0,0,105.45,49.49Z"/><path class="cls-11" d="M111.69,42.74A9.35,9.35,0,0,1,107,40.65s.69,2.7,4.55,3Z"/><path class="cls-10" d="M103.43,31.16c-.06,0-2.48-1.13-2.85,1.27s2.33,2.25,2.34,2.18S103.43,31.16,103.43,31.16Z"/><path class="cls-11" d="M102.26,33.6s-.05,0-.13,0a.46.46,0,0,1-.34,0,1,1,0,0,1-.38-1,1.35,1.35,0,0,1,.22-.58.52.52,0,0,1,.4-.28.24.24,0,0,1,.25.15c0,.07,0,.12,0,.12s.06,0,.06-.13a.37.37,0,0,0-.08-.17.39.39,0,0,0-.24-.09.66.66,0,0,0-.54.31,1.4,1.4,0,0,0-.26.65,1.05,1.05,0,0,0,.5,1.12.52.52,0,0,0,.43,0C102.25,33.66,102.27,33.6,102.26,33.6Z"/><path class="cls-8" d="M116,33.11a.54.54,0,0,1-.62.42.49.49,0,0,1-.47-.54.55.55,0,0,1,.62-.42A.5.5,0,0,1,116,33.11Z"/><path class="cls-8" d="M116.23,32.56c-.08,0-.44-.29-1-.38a8.1,8.1,0,0,0-1.11,0s.06-.14.27-.24a1.7,1.7,0,0,1,.91-.1,1.5,1.5,0,0,1,.8.38C116.23,32.41,116.26,32.54,116.23,32.56Z"/><path class="cls-8" d="M110.3,32.19a.56.56,0,0,1-.63.42.5.5,0,0,1-.47-.54.54.54,0,0,1,.62-.42A.5.5,0,0,1,110.3,32.19Z"/><path class="cls-8" d="M110.45,31.74c-.08.05-.44-.3-1-.39s-1.07.11-1.12,0,.07-.14.28-.23a1.59,1.59,0,0,1,.91-.11,1.46,1.46,0,0,1,.8.39C110.45,31.58,110.49,31.71,110.45,31.74Z"/><path class="cls-8" d="M111.82,36.06a4.52,4.52,0,0,1,1,0c.15,0,.3,0,.34-.08a.69.69,0,0,0,0-.42c-.08-.36-.16-.73-.24-1.12a17.31,17.31,0,0,1-.48-2.89,16.88,16.88,0,0,1,.73,2.85c.08.39.15.76.22,1.12a.75.75,0,0,1,0,.55.39.39,0,0,1-.29.16,1.09,1.09,0,0,1-.26,0A3.82,3.82,0,0,1,111.82,36.06Z"/><path class="cls-8" d="M110,36.15c.1,0,0,.6.46,1.1s1.15.54,1.14.62-.17.09-.46.05a1.59,1.59,0,0,1-1-.49,1.19,1.19,0,0,1-.34-.91C109.88,36.28,110,36.14,110,36.15Z"/><path class="cls-8" d="M116.19,31.58c-.13.11-.5-.09-1-.17s-.91-.06-1-.2.06-.18.26-.27a1.49,1.49,0,0,1,.84-.07,1.43,1.43,0,0,1,.75.37C116.22,31.39,116.25,31.53,116.19,31.58Z"/><path class="cls-8" d="M110.06,29.67c-.08.06-.22,0-.41-.06a4.27,4.27,0,0,0-.7-.2,4.47,4.47,0,0,0-.74-.08c-.2,0-.36,0-.4-.09s0-.22.27-.34a1.61,1.61,0,0,1,1-.11,1.51,1.51,0,0,1,.87.47C110.12,29.46,110.14,29.62,110.06,29.67Z"/><path class="cls-8" d="M117.87,28.86a9.77,9.77,0,0,1-5.51-1.15c-1.84-1-4-1.58-4.55-1.26s-.77,2.12-2.7,2.52c0,0-.15,3.46-1.64,3.24s-.12-5.5-.12-5.5l3.79-1.4,4.06-.43,3.74.26,3.41,1.21Z"/><path class="cls-7" d="M146.25,59.84l-.69,1s7.23,1.47,9.36,5.22h0a.78.78,0,0,0,.31.71l1.29,1a1,1,0,0,0,1,.08h0a9.9,9.9,0,0,1,6.54,4.57l.88,1.38L171.84,60,158.07,46.81Z"/><path class="cls-2" d="M146.4,57.91l-1.29,1.77s7.86.56,11,7.27l5-9.23S148.18,56.42,146.4,57.91Z"/><path class="cls-3" d="M155,44.7s10.23-.37,10.21,9.41L156.09,67s-1.7-9.57-10.6-9.07Z"/><path class="cls-2" d="M156.09,67s8.29.37,9.68,6.59l7.63-12.19-8.48-6.8Z"/><path class="cls-3" d="M165.22,54.11s5.1-2.76,9,.35l2.42,2.07-7.43,12.41s-6-4.95-13.11-2Z"/><path class="cls-8" d="M156.09,67a5.54,5.54,0,0,1,.33-.52l1-1.38,3.2-4.54L163.77,56l1-1.39a3.12,3.12,0,0,1,.37-.49,3.84,3.84,0,0,1-.3.53L163.9,56c-.78,1.19-1.89,2.81-3.14,4.58s-2.41,3.36-3.26,4.51l-1,1.34A3.69,3.69,0,0,1,156.09,67Z"/><path class="cls-8" d="M173.73,57.5s-.39-.32-1.07-.76a9.39,9.39,0,0,0-1.28-.66,10.2,10.2,0,0,0-1.69-.52,10.32,10.32,0,0,0-1.77-.18,8.87,8.87,0,0,0-1.46.11c-.82.13-1.31.31-1.32.28a1.06,1.06,0,0,1,.33-.15,3.37,3.37,0,0,1,.41-.13,5,5,0,0,1,.55-.13,7.81,7.81,0,0,1,1.49-.16,10,10,0,0,1,1.82.17,9,9,0,0,1,1.73.55,7.67,7.67,0,0,1,1.27.71,4.81,4.81,0,0,1,.45.33,3.09,3.09,0,0,1,.31.28C173.66,57.4,173.74,57.49,173.73,57.5Z"/><path class="cls-8" d="M173.08,59s-.39-.32-1.08-.76a8.23,8.23,0,0,0-1.27-.66,9,9,0,0,0-3.47-.7,8.87,8.87,0,0,0-1.46.11c-.82.13-1.3.31-1.32.28s.11-.07.33-.15a4.06,4.06,0,0,1,.41-.13c.16,0,.35-.1.56-.14a8.67,8.67,0,0,1,1.48-.15,10,10,0,0,1,1.82.17,8.79,8.79,0,0,1,1.73.55,7.13,7.13,0,0,1,1.28.71c.17.11.31.23.44.33a3.09,3.09,0,0,1,.31.28C173,58.93,173.09,59,173.08,59Z"/><path class="cls-8" d="M172.06,60.5s-.39-.32-1.07-.76a9.22,9.22,0,0,0-1.27-.66,9.71,9.71,0,0,0-1.7-.51,8.64,8.64,0,0,0-1.77-.18,8.87,8.87,0,0,0-1.46.11c-.82.13-1.31.31-1.32.27a1.27,1.27,0,0,1,.33-.14,2.43,2.43,0,0,1,.41-.14,5,5,0,0,1,.55-.13,7.88,7.88,0,0,1,1.49-.15,8.45,8.45,0,0,1,1.82.17,9,9,0,0,1,1.73.54,7.81,7.81,0,0,1,1.28.71c.17.11.31.24.44.34a3.15,3.15,0,0,1,.31.27C172,60.4,172.07,60.49,172.06,60.5Z"/><path class="cls-15" d="M171.34,62"/><path class="cls-15" d="M162.75,60.28"/><path class="cls-15" d="M170.6,63.62"/><path class="cls-15" d="M162,61.89"/><path class="cls-15" d="M169.84,65.47"/><path class="cls-15" d="M160.48,63.37"/><path class="cls-8" d="M156.65,62.49s0-.54-.28-1.38a7,7,0,0,0-1.69-2.93,7.84,7.84,0,0,0-3-1.88c-.87-.31-1.46-.37-1.45-.41a1.41,1.41,0,0,1,.41,0,6.61,6.61,0,0,1,1.1.25,7.49,7.49,0,0,1,3.09,1.88,6.6,6.6,0,0,1,1.68,3,5.63,5.63,0,0,1,.15,1A1.16,1.16,0,0,1,156.65,62.49Z"/><path class="cls-8" d="M157.78,60.81s0-.54-.27-1.38a7,7,0,0,0-1.7-2.93,7.93,7.93,0,0,0-3-1.88c-.88-.31-1.47-.37-1.46-.41a2.08,2.08,0,0,1,.41,0,7.25,7.25,0,0,1,1.1.25A7.54,7.54,0,0,1,156,56.37a6.56,6.56,0,0,1,1.68,3,5.63,5.63,0,0,1,.15,1C157.81,60.67,157.8,60.81,157.78,60.81Z"/><path class="cls-8" d="M158.92,59.13s0-.54-.28-1.37a6.84,6.84,0,0,0-1.7-2.93A7.81,7.81,0,0,0,154,53c-.88-.31-1.46-.38-1.46-.41a1.67,1.67,0,0,1,.42,0,7.73,7.73,0,0,1,1.09.26,7.43,7.43,0,0,1,3.09,1.88,6.59,6.59,0,0,1,1.69,3,4.66,4.66,0,0,1,.14,1A1.38,1.38,0,0,1,158.92,59.13Z"/><path class="cls-8" d="M160.05,57.46s0-.54-.28-1.38a7,7,0,0,0-1.69-2.93,7.84,7.84,0,0,0-3-1.88c-.87-.31-1.46-.37-1.45-.41a1.41,1.41,0,0,1,.41,0,6.32,6.32,0,0,1,1.09.25,7.46,7.46,0,0,1,3.1,1.88,6.6,6.6,0,0,1,1.68,3,5.63,5.63,0,0,1,.15,1A1.67,1.67,0,0,1,160.05,57.46Z"/><path class="cls-8" d="M161.18,55.78s0-.54-.27-1.38a7,7,0,0,0-1.7-2.93,7.93,7.93,0,0,0-3-1.88c-.88-.31-1.47-.37-1.46-.41a2.08,2.08,0,0,1,.41,0,7.4,7.4,0,0,1,4.19,2.13,6.56,6.56,0,0,1,1.68,3,5.63,5.63,0,0,1,.15,1C161.21,55.64,161.2,55.78,161.18,55.78Z"/><path class="cls-8" d="M162.32,54.1s0-.54-.28-1.37a7,7,0,0,0-1.7-2.93,7.81,7.81,0,0,0-3-1.88c-.88-.31-1.47-.38-1.46-.41a1.48,1.48,0,0,1,.42,0,6.32,6.32,0,0,1,1.09.25,7.43,7.43,0,0,1,3.09,1.88,6.59,6.59,0,0,1,1.69,3,5.37,5.37,0,0,1,.14,1A1.38,1.38,0,0,1,162.32,54.1Z"/><path class="cls-2" d="M163.15,60.5l-2.67,3.55a13.94,13.94,0,0,1,7.65,1.64l2.47-3.8s-3.77-2.72-7.45-1.39"/><path class="cls-1" d="M37.17,40.55l0,.81s4.67-1.81,7.48-.49h0a.58.58,0,0,0,.47.29l1.17.1a.63.63,0,0,0,.59-.33h0a7.25,7.25,0,0,1,5.62.19l1.08.45L51.5,31.34,38.14,29Z"/><path class="cls-2" d="M36.42,39.41l0,1.46a10.14,10.14,0,0,1,9.26.08l-1.17-7S36.77,37.94,36.42,39.41Z"/><path class="cls-3" d="M35.54,28.91s5.55-3.91,9.75,1.55L45.72,41s-5.07-4.73-9.82-1.22Z"/><path class="cls-2" d="M45.72,41s4.79-2.8,8.25.17l-1-9.58-7.66-.72Z"/><path class="cls-3" d="M45.29,30.47s1.65-3.39,5.16-3.06l2.24.28,1.2,9.62s-5.5-.58-8.17,3.65Z"/><path class="cls-1" d="M45.72,41a2.88,2.88,0,0,1,0-.41l-.07-1.12-.18-3.69L45.26,32c0-.44,0-.82,0-1.11a2.26,2.26,0,0,1,0-.42,1.88,1.88,0,0,1,.07.41c0,.26.07.65.11,1.12.08.94.16,2.25.23,3.69s.1,2.75.12,3.7c0,.47,0,.85,0,1.12A1.14,1.14,0,0,1,45.72,41Z"/><path class="cls-1" d="M51.5,29.28s-.36,0-.93,0a6.19,6.19,0,0,0-2.16.42,6,6,0,0,0-1.83,1.12c-.4.37-.6.64-.63.63s0-.08.12-.21a3,3,0,0,1,.42-.5,5.28,5.28,0,0,1,1.85-1.2,5.63,5.63,0,0,1,2.23-.38,3.46,3.46,0,0,1,.68.07A.75.75,0,0,1,51.5,29.28Z"/><path class="cls-1" d="M51.79,30.37s-.36,0-.93,0a6.14,6.14,0,0,0-2.15.42,5.88,5.88,0,0,0-1.83,1.12c-.41.37-.61.64-.63.63s0-.08.11-.21a3.56,3.56,0,0,1,.42-.5,5.38,5.38,0,0,1,1.85-1.2,5.63,5.63,0,0,1,2.23-.38,3.67,3.67,0,0,1,.69.07A.64.64,0,0,1,51.79,30.37Z"/><path class="cls-1" d="M51.86,31.56s-.36,0-.93,0a6.14,6.14,0,0,0-2.15.42A5.88,5.88,0,0,0,47,33.08c-.41.37-.61.64-.63.63s0-.08.11-.21a3.56,3.56,0,0,1,.42-.5,5.33,5.33,0,0,1,1.86-1.2,5.56,5.56,0,0,1,2.22-.38,4.77,4.77,0,0,1,.69.07A.64.64,0,0,1,51.86,31.56Z"/><path class="cls-1" d="M52.11,32.66s-.36,0-.93,0a6.69,6.69,0,0,0-2.16.42,6.21,6.21,0,0,0-1.83,1.13c-.4.37-.6.64-.63.62s0-.08.12-.2a3,3,0,0,1,.42-.51A5.28,5.28,0,0,1,49,32.91a5.85,5.85,0,0,1,2.23-.39,3.32,3.32,0,0,1,.68.08Z"/><path class="cls-1" d="M52.39,33.83s-.36,0-.93,0a6.14,6.14,0,0,0-2.15.42,5.88,5.88,0,0,0-1.83,1.12c-.41.37-.61.64-.63.63s0-.08.11-.21a3.56,3.56,0,0,1,.42-.5,5.33,5.33,0,0,1,1.86-1.2,5.56,5.56,0,0,1,2.22-.38,3.67,3.67,0,0,1,.69.07A.64.64,0,0,1,52.39,33.83Z"/><path class="cls-1" d="M52.76,35.13s-.39,0-1,0a7.74,7.74,0,0,0-1.08.11,8.61,8.61,0,0,0-1.27.34,7.87,7.87,0,0,0-1.2.53,6.87,6.87,0,0,0-.87.59c-.46.38-.67.68-.7.66a1.1,1.1,0,0,1,.13-.22A1.77,1.77,0,0,1,47,36.9a2.64,2.64,0,0,1,.29-.29,4.56,4.56,0,0,1,.87-.64,7.25,7.25,0,0,1,1.22-.56,7.93,7.93,0,0,1,1.31-.34A6.47,6.47,0,0,1,51.75,35a2.89,2.89,0,0,1,.43,0l.31,0A1.23,1.23,0,0,1,52.76,35.13Z"/><path class="cls-1" d="M52.81,36.18s-.39,0-1,0a7,7,0,0,0-1.08.14,10.41,10.41,0,0,0-1.27.37,10.82,10.82,0,0,0-1.18.58,7.44,7.44,0,0,0-.86.61c-.45.39-.67.69-.69.67s0-.08.13-.22a1.64,1.64,0,0,1,.19-.24l.28-.3a6,6,0,0,1,.86-.65,6.72,6.72,0,0,1,1.2-.6,9.44,9.44,0,0,1,1.31-.38,6.7,6.7,0,0,1,1.11-.1,2,2,0,0,1,.43,0l.32,0C52.72,36.14,52.82,36.17,52.81,36.18Z"/><path class="cls-1" d="M44.11,38.25s-.26-.28-.76-.65a5.44,5.44,0,0,0-2.2-1,5.92,5.92,0,0,0-2.47,0c-.62.14-1,.31-1,.29s.08-.07.24-.14a4.13,4.13,0,0,1,.72-.27,5.53,5.53,0,0,1,2.54-.07,5.13,5.13,0,0,1,2.25,1.08A3.54,3.54,0,0,1,44,38,.86.86,0,0,1,44.11,38.25Z"/><path class="cls-1" d="M44,36.91s-.26-.28-.76-.66a5.44,5.44,0,0,0-2.2-1,5.94,5.94,0,0,0-2.47,0c-.62.15-1,.32-1,.29s.08-.06.24-.14a3.53,3.53,0,0,1,.72-.26,5.38,5.38,0,0,1,2.54-.08,5.13,5.13,0,0,1,2.25,1.09,4.17,4.17,0,0,1,.52.52C44,36.82,44,36.9,44,36.91Z"/><path class="cls-1" d="M43.93,35.56s-.26-.28-.76-.66a5.57,5.57,0,0,0-2.2-1,5.76,5.76,0,0,0-2.47,0c-.62.14-1,.31-1,.28s.08-.06.24-.14a4.26,4.26,0,0,1,.72-.26A5.38,5.38,0,0,1,41,33.72a5.13,5.13,0,0,1,2.25,1.09,4.12,4.12,0,0,1,.52.53C43.89,35.47,43.94,35.55,43.93,35.56Z"/><path class="cls-1" d="M43.84,34.21s-.26-.28-.76-.65a5.44,5.44,0,0,0-2.2-1,5.92,5.92,0,0,0-2.47,0c-.62.14-1,.31-1,.29s.08-.07.24-.14a4.13,4.13,0,0,1,.72-.27,5.53,5.53,0,0,1,2.54-.07,5,5,0,0,1,2.25,1.09,3.58,3.58,0,0,1,.52.52A.86.86,0,0,1,43.84,34.21Z"/><path class="cls-1" d="M43.75,32.87s-.26-.28-.76-.66a5.44,5.44,0,0,0-2.2-1,5.94,5.94,0,0,0-2.47,0c-.62.15-1,.32-1,.29s.08-.06.24-.14a3.53,3.53,0,0,1,.72-.26A5.38,5.38,0,0,1,40.83,31a5.13,5.13,0,0,1,2.25,1.09,4.17,4.17,0,0,1,.52.52C43.71,32.78,43.76,32.86,43.75,32.87Z"/><path class="cls-1" d="M43.66,31.52s-.26-.28-.76-.66a5.57,5.57,0,0,0-2.2-1,5.76,5.76,0,0,0-2.47,0c-.62.14-1,.31-1,.28s.08-.06.24-.14a4.26,4.26,0,0,1,.72-.26,5.38,5.38,0,0,1,2.54-.08A5.13,5.13,0,0,1,43,30.77a4.12,4.12,0,0,1,.52.53C43.62,31.43,43.67,31.51,43.66,31.52Z"/><path class="cls-7" d="M57.37,70.83l.79.93S62.09,66,66.64,65.4h0a1,1,0,0,0,.84,0L69,64.59a.8.8,0,0,0,.42-.84h0a9.79,9.79,0,0,1,6.88-4.14l1.71-.3L66.2,49.44,47.9,56.27Z"/><path class="cls-2" d="M55.43,70.06l1.39,1.7A13.62,13.62,0,0,1,68,64.69l-7.82-7.42S54.49,68,55.43,70.06Z"/><path class="cls-3" d="M44.72,58.19s3-9,13.07-5.69L68,64.69S57.55,63,55.1,70.83Z"/><path class="cls-2" d="M68,64.69s3.14-7,10-6.18L68,47.85l-9.82,5.07Z"/><path class="cls-3" d="M57.79,52.52s-1.14-5.33,3.35-7.65l2.94-1.41L74.36,54S67.26,57.59,68,64.7Z"/><path class="cls-8" d="M68,64.69a2.86,2.86,0,0,1-.43-.46l-1.1-1.29-3.6-4.28-3.61-4.27-1.1-1.29a4.11,4.11,0,0,1-.39-.49,4,4,0,0,1,.45.44c.28.29.67.72,1.15,1.25,1,1.07,2.26,2.57,3.67,4.24s2.65,3.2,3.55,4.32l1,1.32A3.94,3.94,0,0,1,68,64.69Z"/><path class="cls-8" d="M64.3,46.57a10.88,10.88,0,0,0-1.18.5,7.78,7.78,0,0,0-2.27,2,6.73,6.73,0,0,0-1.33,2.57c-.18.72-.16,1.18-.2,1.18a.9.9,0,0,1,0-.32,3.48,3.48,0,0,1,.08-.89,6.28,6.28,0,0,1,1.31-2.66A7.14,7.14,0,0,1,63.05,47a4.08,4.08,0,0,1,.9-.33A1.14,1.14,0,0,1,64.3,46.57Z"/><path class="cls-8" d="M69.37,51s-.47.23-1.14.67a8.48,8.48,0,0,0-1.11.88A9,9,0,0,0,66,53.88a8.09,8.09,0,0,0-.78,1.47,6.9,6.9,0,0,0-.37,1.3c-.14.75-.12,1.23-.16,1.23a1.14,1.14,0,0,1,0-.33,2.66,2.66,0,0,1,0-.4,3.49,3.49,0,0,1,0-.52,6.27,6.27,0,0,1,.34-1.34,7.32,7.32,0,0,1,.78-1.52A8.14,8.14,0,0,1,67,52.46a7.77,7.77,0,0,1,1.16-.87c.17-.11.35-.19.49-.27a3.12,3.12,0,0,1,.39-.18A1.54,1.54,0,0,1,69.37,51Z"/><path class="cls-8" d="M71,52.3s-.51.24-1.23.74a11.12,11.12,0,0,0-1.2,1,12.11,12.11,0,0,0-1.22,1.39A10.56,10.56,0,0,0,66.43,57a8.08,8.08,0,0,0-.49,1.39c-.2.81-.17,1.33-.21,1.33a1,1,0,0,1,0-.36,2.13,2.13,0,0,1,0-.43,3.24,3.24,0,0,1,.08-.57,6.88,6.88,0,0,1,.46-1.43,9.64,9.64,0,0,1,.94-1.6,10.27,10.27,0,0,1,1.25-1.41,8.57,8.57,0,0,1,1.25-1,4.87,4.87,0,0,1,.52-.3,2.56,2.56,0,0,1,.42-.2A1.42,1.42,0,0,1,71,52.3Z"/><path class="cls-8" d="M72,53.5s-.51.25-1.22.76a9,9,0,0,0-1.17,1,11.65,11.65,0,0,0-1.18,1.44,11.18,11.18,0,0,0-.88,1.6,7.82,7.82,0,0,0-.46,1.4c-.18.82-.15,1.35-.2,1.35a1.82,1.82,0,0,1,0-.37,2.12,2.12,0,0,1,0-.43,4.21,4.21,0,0,1,.07-.57,7.19,7.19,0,0,1,.43-1.45,10.2,10.2,0,0,1,.88-1.64,10.55,10.55,0,0,1,1.21-1.45,8.33,8.33,0,0,1,1.23-1,3.73,3.73,0,0,1,.52-.31,2.56,2.56,0,0,1,.42-.2A1.87,1.87,0,0,1,72,53.5Z"/><path class="cls-8" d="M63.55,62.72S63,62.57,62,62.5a8.38,8.38,0,0,0-3.58.49,7.84,7.84,0,0,0-2.92,1.95c-.61.66-.87,1.14-.91,1.13a1,1,0,0,1,.17-.35,5.93,5.93,0,0,1,.62-.87,7.48,7.48,0,0,1,3-2,8,8,0,0,1,3.68-.45,6.56,6.56,0,0,1,1.1.22A1.1,1.1,0,0,1,63.55,62.72Z"/><path class="cls-8" d="M62.2,61.18S61.63,61,60.7,61a8.36,8.36,0,0,0-3.58.49,7.8,7.8,0,0,0-2.93,1.95c-.61.66-.87,1.15-.9,1.13s0-.13.16-.35a5.62,5.62,0,0,1,.63-.86,7.25,7.25,0,0,1,3-2,8.1,8.1,0,0,1,3.67-.45,6.72,6.72,0,0,1,1.11.22A1.25,1.25,0,0,1,62.2,61.18Z"/><path class="cls-8" d="M60.86,59.64s-.57-.14-1.51-.22a8.38,8.38,0,0,0-3.58.49,7.73,7.73,0,0,0-2.92,2c-.61.65-.88,1.14-.91,1.12a1.14,1.14,0,0,1,.17-.35,5.25,5.25,0,0,1,.62-.86,7.32,7.32,0,0,1,3-2.05,8.14,8.14,0,0,1,3.68-.45,6.56,6.56,0,0,1,1.1.22A1.41,1.41,0,0,1,60.86,59.64Z"/><path class="cls-8" d="M59.51,58.1S58.94,58,58,57.88a8.5,8.5,0,0,0-3.57.49,7.7,7.7,0,0,0-2.93,2c-.61.65-.87,1.14-.91,1.12a1.85,1.85,0,0,1,.17-.35,5.94,5.94,0,0,1,.62-.86,7.49,7.49,0,0,1,3-2.05A8,8,0,0,1,58,57.75a7.13,7.13,0,0,1,1.11.21A1.42,1.42,0,0,1,59.51,58.1Z"/><path class="cls-8" d="M58.16,56.56s-.57-.14-1.5-.22a8.55,8.55,0,0,0-3.58.5,7.77,7.77,0,0,0-2.93,1.95c-.61.65-.87,1.14-.9,1.12a1.28,1.28,0,0,1,.16-.34A6.14,6.14,0,0,1,50,58.7a7.35,7.35,0,0,1,3-2.05,7.94,7.94,0,0,1,3.67-.44,6.68,6.68,0,0,1,1.11.21A1.71,1.71,0,0,1,58.16,56.56Z"/><path class="cls-8" d="M56.82,55s-.57-.14-1.51-.21a8.38,8.38,0,0,0-3.58.49,7.72,7.72,0,0,0-2.92,2c-.61.66-.87,1.14-.91,1.12a1.17,1.17,0,0,1,.17-.34,5.93,5.93,0,0,1,.62-.87,7.31,7.31,0,0,1,3-2,7.87,7.87,0,0,1,3.68-.45,6.74,6.74,0,0,1,1.1.21A2,2,0,0,1,56.82,55Z"/><path class="cls-2" d="M60.55,53.14,63.36,56a8.18,8.18,0,0,1,4.69-5.46l-3-2.9A7,7,0,0,0,60.55,53.14Z"/><path class="cls-7" d="M70.63,24.23l-.42.84s5.77.43,7.85,3.11h0a.6.6,0,0,0,.32.52l1.12.66a.73.73,0,0,0,.78,0h0a8,8,0,0,1,5.59,2.89l.84,1,3.71-11.38L78.25,13Z"/><path class="cls-2" d="M70.52,22.72l-.79,1.49s6.14-.34,9.34,4.55l2.8-7.63S71.72,21.39,70.52,22.72Z"/><path class="cls-3" d="M75.66,11.66s7.86-1.28,9,6.27L79.07,28.76s-2.43-7.23-9.25-6Z"/><path class="cls-2" d="M79.07,28.76s6.45-.52,8.25,4.15l4.47-10.18-7.34-4.42Z"/><path class="cls-3" d="M84.63,17.94s3.61-2.63,7-.61l2.11,1.37L89.42,29s-5.24-3.24-10.37-.25Z"/><path class="cls-8" d="M79.07,28.76a1.59,1.59,0,0,1,.18-.44l.57-1.16c.52-1,1.2-2.35,1.94-3.83s1.43-2.8,1.94-3.82l.59-1.16a2.91,2.91,0,0,1,.24-.42,1.86,1.86,0,0,1-.16.45c-.12.28-.3.69-.53,1.19-.46,1-1.12,2.35-1.88,3.85s-1.47,2.83-2,3.8l-.63,1.14A2.72,2.72,0,0,1,79.07,28.76Z"/><path class="cls-8" d="M91.6,19.73s-.35-.21-.93-.47a7,7,0,0,0-2.42-.61,7.35,7.35,0,0,0-2.5.25c-.62.18-1,.36-1,.33s.07-.07.23-.15a4.71,4.71,0,0,1,.71-.31,6.62,6.62,0,0,1,2.57-.32,6.39,6.39,0,0,1,2.47.69,4.27,4.27,0,0,1,.65.4C91.53,19.65,91.61,19.72,91.6,19.73Z"/><path class="cls-8" d="M91.27,21s-.35-.2-.93-.47a7.52,7.52,0,0,0-2.42-.61,7.32,7.32,0,0,0-2.5.26c-.62.17-1,.36-1,.32s.07-.06.23-.15a4,4,0,0,1,.71-.3,6.6,6.6,0,0,1,5,.36,3.54,3.54,0,0,1,.65.41Q91.29,21,91.27,21Z"/><path class="cls-8" d="M90.66,22.21s-.35-.2-.93-.47a7.18,7.18,0,0,0-4.92-.35c-.62.17-1,.35-1,.32s.07-.06.23-.15a4.71,4.71,0,0,1,.71-.31,6.64,6.64,0,0,1,2.57-.31,6.4,6.4,0,0,1,2.47.68,3.54,3.54,0,0,1,.65.41Q90.67,22.2,90.66,22.21Z"/><path class="cls-8" d="M90.28,23.45s-.35-.2-.93-.47a7.1,7.1,0,0,0-2.42-.61,7.35,7.35,0,0,0-2.5.25c-.62.18-1,.36-1,.33l.24-.15a4.71,4.71,0,0,1,.71-.31,6.57,6.57,0,0,1,2.56-.32,6.44,6.44,0,0,1,2.48.69,4.27,4.27,0,0,1,.65.4C90.21,23.37,90.29,23.44,90.28,23.45Z"/><path class="cls-8" d="M89.9,24.77s-.35-.21-.93-.47a7.11,7.11,0,0,0-4.92-.36c-.62.18-1,.36-1,.33s.08-.07.24-.16a4.42,4.42,0,0,1,.71-.3,6.57,6.57,0,0,1,2.56-.32,6.7,6.7,0,0,1,2.48.68,5.11,5.11,0,0,1,.65.41C89.83,24.69,89.9,24.75,89.9,24.77Z"/><path class="cls-8" d="M89.52,26.26s-.37-.22-1-.5a6.76,6.76,0,0,0-1.16-.4,10.25,10.25,0,0,0-1.48-.28,9.8,9.8,0,0,0-1.52,0,7.55,7.55,0,0,0-1.22.18c-.68.16-1.07.36-1.09.33a1.18,1.18,0,0,1,.26-.16l.33-.15.46-.16a7.28,7.28,0,0,1,1.25-.22,8.1,8.1,0,0,1,1.55,0,10.53,10.53,0,0,1,1.52.29,7.94,7.94,0,0,1,1.17.46,2.73,2.73,0,0,1,.42.23,1.45,1.45,0,0,1,.29.2C89.45,26.18,89.53,26.25,89.52,26.26Z"/><path class="cls-8" d="M89,27.35s-.38-.23-1-.5a8.49,8.49,0,0,0-1.17-.38,11,11,0,0,0-1.5-.23,12.9,12.9,0,0,0-1.53,0,8.52,8.52,0,0,0-1.22.21c-.68.17-1.07.37-1.09.34s.08-.07.26-.16l.33-.15a2.24,2.24,0,0,1,.46-.16,7.06,7.06,0,0,1,1.24-.26,10,10,0,0,1,1.56,0,8.54,8.54,0,0,1,1.54.25,6.89,6.89,0,0,1,1.18.43,3.4,3.4,0,0,1,.43.22l.3.2C88.91,27.27,89,27.34,89,27.35Z"/><path class="cls-8" d="M79,25.25s-.11-.41-.39-1a5.8,5.8,0,0,0-1.65-2.09A6.36,6.36,0,0,0,74.42,21c-.71-.16-1.17-.15-1.17-.19a1.25,1.25,0,0,1,.33,0,3.85,3.85,0,0,1,.87.08A6,6,0,0,1,77.07,22a5.36,5.36,0,0,1,1.66,2.19A4.47,4.47,0,0,1,79,25,.71.71,0,0,1,79,25.25Z"/><path class="cls-8" d="M79.66,23.85s-.11-.42-.39-1a5.71,5.71,0,0,0-1.65-2.09,6.54,6.54,0,0,0-2.52-1.17c-.71-.15-1.17-.15-1.17-.18s.12,0,.33,0a5.75,5.75,0,0,1,.88.08,5.91,5.91,0,0,1,2.61,1.15,5.23,5.23,0,0,1,1.66,2.19,5.42,5.42,0,0,1,.23.78A.86.86,0,0,1,79.66,23.85Z"/><path class="cls-8" d="M80.34,22.44s-.11-.41-.39-1a5.71,5.71,0,0,0-1.65-2.09,6.36,6.36,0,0,0-2.52-1.16C75.07,18,74.61,18,74.61,18a1,1,0,0,1,.33,0,5.65,5.65,0,0,1,.88.08,5.87,5.87,0,0,1,2.61,1.15,5.29,5.29,0,0,1,1.66,2.19,4.37,4.37,0,0,1,.23.78A.86.86,0,0,1,80.34,22.44Z"/><path class="cls-8" d="M81,21s-.11-.41-.39-1A5.8,5.8,0,0,0,79,17.91a6.36,6.36,0,0,0-2.52-1.16c-.71-.16-1.17-.15-1.17-.19l.33,0a4.8,4.8,0,0,1,.88.09,6,6,0,0,1,2.62,1.14A5.32,5.32,0,0,1,80.77,20a3.84,3.84,0,0,1,.23.78A.86.86,0,0,1,81,21Z"/><path class="cls-8" d="M81.7,19.62s-.11-.41-.39-1a5.77,5.77,0,0,0-1.65-2.08,6.43,6.43,0,0,0-2.51-1.17c-.72-.15-1.18-.15-1.18-.19a1.25,1.25,0,0,1,.33,0,5.65,5.65,0,0,1,.88.08,5.94,5.94,0,0,1,2.62,1.15,5.24,5.24,0,0,1,1.65,2.18,3.89,3.89,0,0,1,.23.79A.8.8,0,0,1,81.7,19.62Z"/><path class="cls-8" d="M82.38,18.22s-.11-.41-.39-1a5.71,5.71,0,0,0-1.65-2.09,6.39,6.39,0,0,0-2.51-1.16c-.71-.16-1.18-.16-1.17-.19a.9.9,0,0,1,.32,0,5.65,5.65,0,0,1,.88.08A5.94,5.94,0,0,1,80.48,15a5.26,5.26,0,0,1,1.65,2.19,3.66,3.66,0,0,1,.23.78A.86.86,0,0,1,82.38,18.22Z"/><path class="cls-7" d="M138.43,18.25a2.57,2.57,0,0,0-.24-1.65A2.68,2.68,0,0,0,137,15.37a2.58,2.58,0,0,0-1.85-.21,2.42,2.42,0,0,0-1,.53,2,2,0,0,0-.44-.85,2.38,2.38,0,0,0-1.63-.83,3.11,3.11,0,0,0-1.72.38,2.87,2.87,0,0,0-1.24,1.22,3.07,3.07,0,0,0-.26,2.1,4.53,4.53,0,0,0,1.19,2c.89.94,2.09,2.15,2.09,2.15s1.54-.49,2.87-.77a5.41,5.41,0,0,0,2.22-1A3.31,3.31,0,0,0,138.43,18.25Z"/><path class="cls-7" d="M129.52,28.24a1.33,1.33,0,0,0-.53-.62,1.46,1.46,0,0,0-.8-.26,1.26,1.26,0,0,0-.82.33.94.94,0,0,0-.25.43,1.22,1.22,0,0,0-.41-.25,1.24,1.24,0,0,0-.89,0,1.31,1.31,0,0,0-.6.54,1.28,1.28,0,0,0-.19.78,1.55,1.55,0,0,0,.45.92,2.59,2.59,0,0,0,1,.54l1.42.42s.5-.54,1-1a2.16,2.16,0,0,0,.65-.88A1.46,1.46,0,0,0,129.52,28.24Z"/><path class="cls-7" d="M71.52,83.63a1.27,1.27,0,0,0-.09-.79,1.3,1.3,0,0,0-.54-.6,1.19,1.19,0,0,0-.87-.11,1,1,0,0,0-.47.24,1.16,1.16,0,0,0-.2-.42,1.19,1.19,0,0,0-.76-.41,1.48,1.48,0,0,0-.83.17,1.38,1.38,0,0,0-.61.56,1.52,1.52,0,0,0-.15,1,2.26,2.26,0,0,0,.54,1l1,1s.74-.22,1.38-.34A2.65,2.65,0,0,0,71,84.5,1.61,1.61,0,0,0,71.52,83.63Z"/><path class="cls-7" d="M152.75,84.09a.83.83,0,0,0-.33-.39.93.93,0,0,0-.51-.16.74.74,0,0,0-.51.21.21.21,0,1,1-.41.11.77.77,0,0,0-.56,0,.9.9,0,0,0-.38.34.78.78,0,0,0-.12.49,1,1,0,0,0,.28.58,1.61,1.61,0,0,0,.63.34l.9.26s.32-.34.61-.6a1.36,1.36,0,0,0,.42-.56A.91.91,0,0,0,152.75,84.09Z"/><path class="cls-7" d="M76,71.49a.83.83,0,0,0-.33-.39.93.93,0,0,0-.51-.16.74.74,0,0,0-.51.21.57.57,0,0,0-.16.27.67.67,0,0,0-.25-.16.77.77,0,0,0-.56,0,.9.9,0,0,0-.38.34.78.78,0,0,0-.12.49,1,1,0,0,0,.28.58,1.61,1.61,0,0,0,.63.34l.9.26s.32-.34.61-.6a1.29,1.29,0,0,0,.41-.55A.88.88,0,0,0,76,71.49Z"/><path class="cls-7" d="M147.71,24.27a.85.85,0,0,0-.33-.4.89.89,0,0,0-.5-.15.67.67,0,0,0-.68.47A.82.82,0,0,0,146,24a.77.77,0,0,0-.56,0,.84.84,0,0,0-.38.34.74.74,0,0,0-.12.48,1,1,0,0,0,.28.58,1.65,1.65,0,0,0,.64.34l.89.26s.32-.33.61-.59a1.5,1.5,0,0,0,.42-.56A.91.91,0,0,0,147.71,24.27Z"/><path class="cls-7" d="M146.9,75.2a2.32,2.32,0,0,0-.38-1.41,2.52,2.52,0,0,0-1.13-1,2.29,2.29,0,0,0-1.63,0,2.14,2.14,0,0,0-.78.54,1.68,1.68,0,0,0-.46-.69,2.16,2.16,0,0,0-1.5-.57,2.69,2.69,0,0,0-1.45.5,2.39,2.39,0,0,0-.93,1.16,2.68,2.68,0,0,0,0,1.83,4.08,4.08,0,0,0,1.25,1.59c.87.74,2,1.67,2,1.67s1.27-.56,2.39-.93a4.67,4.67,0,0,0,1.81-1A2.75,2.75,0,0,0,146.9,75.2Z"/></svg>